<svg id="Layer_1" height="512" viewBox="0 0 512 512" width="512" xmlns="http://www.w3.org/2000/svg" data-name="Layer 1"><path d="m424.122 161.738c-13.262-94.917-93.222-138.069-166.543-138.727-.579-.011-1.17-.011-1.749-.011-72.691 0-152.665 41.938-167.469 135.63-6.835 43.287 1.931 88.893 25.348 131.891 41.172 75.6 110.6 157.864 138.541 189.726l3.759 4.286 3.76-4.286c27.894-31.8 97.231-113.931 138.471-189.584 22.852-41.93 31.802-86.511 25.882-128.925zm-168.112 134.692a99.425 99.425 0 1 1 99.43-99.42 99.533 99.533 0 0 1 -99.43 99.42z" fill="#57a3ff"/><path d="m446.9 158.558c-6.835-48.907-30.25-89.869-67.715-118.458-33.352-25.451-76.485-39.688-121.445-40.091-44.94-.409-88.39 13.064-122.24 37.919-38 27.911-62.159 68.408-69.855 117.112-7.636 48.331 2 98.982 27.866 146.477 52.935 97.194 148.154 201.547 152.181 205.942a14 14 0 0 0 20.643 0c4.023-4.39 99.143-108.635 152.1-205.788 25.231-46.299 35.075-95.787 28.465-143.113zm-53.055 129.714c-41.31 75.792-111.551 158.72-137.832 188.679-26.296-29.977-96.613-112.992-137.913-188.826-22.887-42.025-31.463-86.535-24.8-128.715 14.373-90.947 91.685-131.41 162.525-131.41.554 0 1.112 0 1.664.007 71.217.638 148.828 42.45 161.678 134.424 5.775 41.337-2.981 84.852-25.322 125.841zm-137.832-190.689a99.426 99.426 0 1 0 99.425 99.425 99.538 99.538 0 0 0 -99.425-99.425zm0 170.851a71.426 71.426 0 1 1 71.425-71.426 71.507 71.507 0 0 1 -71.425 71.426z" fill="#004fab"/></svg>